<?xml version="1.0" encoding="utf-8"?>
<!-- Generator: Adobe Illustrator 19.0.0, SVG Export Plug-In . SVG Version: 6.00 Build 0)  -->
<svg version="1.1" id="Capa_1" xmlns="http://www.w3.org/2000/svg" xmlns:xlink="http://www.w3.org/1999/xlink" x="0px" y="0px"
	 viewBox="-53 176.3 488.6 488.6" style="enable-background:new -53 176.3 488.6 488.6;" xml:space="preserve">
<style type="text/css">
	.st0{fill:#6A9E20;}
</style>
<g>
	<path class="st0" d="M433.7,592.1l-113-187.8c-10.5-17.1-25.7-27-41.8-27c0,0-0.1,0-0.1,0c-0.5,0-1,0-1.5,0
		c-24.8-41.9-70-67.7-118.8-67.7c-76.1,0-138,61.9-138,138c0,34.8,12.7,67.5,36,93l-27.6,45.3H-40c-7.2,0-13,5.8-13,13s5.8,13,13,13
		h462.6c4.7,0,9-2.5,11.3-6.6C436.2,601.1,436.1,596.1,433.7,592.1z M46.4,447.6c0-61.8,50.3-112,112-112c38,0,73.4,19.4,94,51
		c-5.8,4.4-11.1,10.3-15.6,17.4l-54.3,87.7l-6-10c0,0,0-0.1-0.1-0.1c-10.4-17.1-25.7-27-41.9-27c-0.1,0-0.1,0-0.2,0
		c-16.1,0-31.4,9.7-41.9,26.7c0,0,0,0.1-0.1,0.1l-21.9,35.9C55,497.5,46.4,473.2,46.4,447.6z M114.7,494.9
		c5.7-9.1,12.9-14.4,19.8-14.4c0,0,0,0,0.1,0c6.9,0,14.1,5.3,19.7,14.5l54.3,90.7H59.3L114.7,494.9z M239,585.8l-41.4-69.1
		l61.4-99.1c5.7-9.2,12.9-14.5,19.8-14.4c6.9,0,14.1,5.3,19.7,14.5l101.1,168.1H239z"/>
	<path class="st0" d="M161.3,302.7c7.2,0,13-5.8,13-13v-47.4c0-7.2-5.8-13-13-13s-13,5.8-13,13v47.4
		C148.3,296.9,154.1,302.7,161.3,302.7z"/>
	<path class="st0" d="M-39,469.8H1.1c7.2,0,13-5.8,13-13s-5.8-13-13-13H-39c-7.2,0-13,5.8-13,13C-52,464-46.2,469.8-39,469.8z"/>
	<path class="st0" d="M33.8,347.7c2.5,2.5,5.9,3.8,9.2,3.8s6.7-1.3,9.2-3.8c5.1-5.1,5.1-13.3,0-18.4l-33.5-33.5
		c-5.1-5.1-13.3-5.1-18.4,0c-5.1,5.1-5.1,13.3,0,18.4L33.8,347.7z"/>
	<path class="st0" d="M276.7,354.5c3.3,0,6.7-1.3,9.2-3.8l33.5-33.5c5.1-5.1,5.1-13.3,0-18.4c-5.1-5.1-13.3-5.1-18.4,0l-33.5,33.5
		c-5.1,5.1-5.1,13.3,0,18.4C270,353.2,273.3,354.5,276.7,354.5z"/>
</g>
</svg>
